<svg preserveAspectRatio="none" width="100%" height="100%" overflow="visible" style="display: block;" viewBox="0 0 27 24" fill="none" xmlns="http://www.w3.org/2000/svg">
<g id="Container">
<path id="Icon" d="M3 24C2.175 24 1.46875 23.7062 0.88125 23.1187C0.29375 22.5312 0 21.825 0 21C0 20.175 0.29375 19.4688 0.88125 18.8813C1.46875 18.2938 2.175 18 3 18C3.825 18 4.53125 18.2938 5.11875 18.8813C5.70625 19.4688 6 20.175 6 21C6 21.825 5.70625 22.5312 5.11875 23.1187C4.53125 23.7062 3.825 24 3 24V24M3 15C2.175 15 1.46875 14.7062 0.88125 14.1187C0.29375 13.5312 0 12.825 0 12C0 11.175 0.29375 10.4688 0.88125 9.88125C1.46875 9.29375 2.175 9 3 9C3.825 9 4.53125 9.29375 5.11875 9.88125C5.70625 10.4688 6 11.175 6 12C6 12.825 5.70625 13.5312 5.11875 14.1187C4.53125 14.7062 3.825 15 3 15V15M3 6C2.175 6 1.46875 5.70625 0.88125 5.11875C0.29375 4.53125 0 3.825 0 3C0 2.175 0.29375 1.46875 0.88125 0.88125C1.46875 0.29375 2.175 0 3 0C3.825 0 4.53125 0.29375 5.11875 0.88125C5.70625 1.46875 6 2.175 6 3C6 3.825 5.70625 4.53125 5.11875 5.11875C4.53125 5.70625 3.825 6 3 6V6M12 6C11.175 6 10.4688 5.70625 9.88125 5.11875C9.29375 4.53125 9 3.825 9 3C9 2.175 9.29375 1.46875 9.88125 0.88125C10.4688 0.29375 11.175 0 12 0C12.825 0 13.5312 0.29375 14.1187 0.88125C14.7062 1.46875 15 2.175 15 3C15 3.825 14.7062 4.53125 14.1187 5.11875C13.5312 5.70625 12.825 6 12 6V6M21 6C20.175 6 19.4688 5.70625 18.8813 5.11875C18.2938 4.53125 18 3.825 18 3C18 2.175 18.2938 1.46875 18.8813 0.88125C19.4688 0.29375 20.175 0 21 0C21.825 0 22.5312 0.29375 23.1187 0.88125C23.7062 1.46875 24 2.175 24 3C24 3.825 23.7062 4.53125 23.1187 5.11875C22.5312 5.70625 21.825 6 21 6V6M12 15C11.175 15 10.4688 14.7062 9.88125 14.1187C9.29375 13.5312 9 12.825 9 12C9 11.175 9.29375 10.4688 9.88125 9.88125C10.4688 9.29375 11.175 9 12 9C12.825 9 13.5312 9.29375 14.1187 9.88125C14.7062 10.4688 15 11.175 15 12C15 12.825 14.7062 13.5312 14.1187 14.1187C13.5312 14.7062 12.825 15 12 15V15M13.5 24V19.3875L21.7875 11.1375C22.0125 10.9125 22.2625 10.75 22.5375 10.65C22.8125 10.55 23.0875 10.5 23.3625 10.5C23.6625 10.5 23.95 10.5562 24.225 10.6687C24.5 10.7812 24.75 10.95 24.975 11.175L26.3625 12.5625C26.5625 12.7875 26.7187 13.0375 26.8312 13.3125C26.9437 13.5875 27 13.8625 27 14.1375C27 14.4125 26.95 14.6937 26.85 14.9812C26.75 15.2687 26.5875 15.525 26.3625 15.75L18.1125 24H13.5V24M24.75 14.1375V14.1375L23.3625 12.75V12.75L24.75 14.1375V14.1375M15.75 21.75H17.175L21.7125 17.175L21.0375 16.4625L20.325 15.7875L15.75 20.325V21.75V21.75M21.0375 16.4625L20.325 15.7875V15.7875L21.7125 17.175V17.175L21.0375 16.4625V16.4625" fill="var(--fill-0, #10B981)"/>
</g>
</svg>
