<svg preserveAspectRatio="none" width="100%" height="100%" overflow="visible" style="display: block;" viewBox="0 0 20 15.2167" fill="none" xmlns="http://www.w3.org/2000/svg">
<path id="_shape" d="M19 8.60833H17C16.7167 8.60833 16.4792 8.5125 16.2875 8.32083C16.0958 8.12917 16 7.89167 16 7.60833C16 7.325 16.0958 7.0875 16.2875 6.89583C16.4792 6.70417 16.7167 6.60833 17 6.60833H19C19.2833 6.60833 19.5208 6.70417 19.7125 6.89583C19.9042 7.0875 20 7.325 20 7.60833C20 7.89167 19.9042 8.12917 19.7125 8.32083C19.5208 8.5125 19.2833 8.60833 19 8.60833ZM14.6 12.4083C14.7667 12.175 14.9833 12.0417 15.25 12.0083C15.5167 11.975 15.7667 12.0417 16 12.2083L17.6 13.4083C17.8333 13.575 17.9667 13.7917 18 14.0583C18.0333 14.325 17.9667 14.575 17.8 14.8083C17.6333 15.0417 17.4167 15.175 17.15 15.2083C16.8833 15.2417 16.6333 15.175 16.4 15.0083L14.8 13.8083C14.5667 13.6417 14.4333 13.425 14.4 13.1583C14.3667 12.8917 14.4333 12.6417 14.6 12.4083ZM17.6 1.80833L16 3.00833C15.7667 3.175 15.5167 3.24167 15.25 3.20833C14.9833 3.175 14.7667 3.04167 14.6 2.80833C14.4333 2.575 14.3667 2.325 14.4 2.05833C14.4333 1.79167 14.5667 1.575 14.8 1.40833L16.4 0.208333C16.6333 0.0416667 16.8833 -0.025 17.15 0.00833333C17.4167 0.0416667 17.6333 0.175 17.8 0.408333C17.9667 0.641667 18.0333 0.891667 18 1.15833C17.9667 1.425 17.8333 1.64167 17.6 1.80833ZM3 10.6083H2C1.45 10.6083 0.979167 10.4125 0.5875 10.0208C0.195833 9.62917 0 9.15833 0 8.60833V6.60833C0 6.05833 0.195833 5.5875 0.5875 5.19583C0.979167 4.80417 1.45 4.60833 2 4.60833H6L9.475 2.50833C9.80833 2.30833 10.1458 2.30833 10.4875 2.50833C10.8292 2.70833 11 3 11 3.38333V11.8333C11 12.2167 10.8292 12.5083 10.4875 12.7083C10.1458 12.9083 9.80833 12.9083 9.475 12.7083L6 10.6083H5V13.6083C5 13.8917 4.90417 14.1292 4.7125 14.3208C4.52083 14.5125 4.28333 14.6083 4 14.6083C3.71667 14.6083 3.47917 14.5125 3.2875 14.3208C3.09583 14.1292 3 13.8917 3 13.6083V10.6083ZM9 10.0583V5.15833L6.55 6.60833H2V8.60833H6.55L9 10.0583ZM12 10.9583V4.25833C12.45 4.65833 12.8125 5.14583 13.0875 5.72083C13.3625 6.29583 13.5 6.925 13.5 7.60833C13.5 8.29167 13.3625 8.92083 13.0875 9.49583C12.8125 10.0708 12.45 10.5583 12 10.9583Z" fill="var(--fill-0, #10B981)"/>
</svg>
