<svg preserveAspectRatio="none" width="100%" height="100%" overflow="visible" style="display: block;" viewBox="0 0 18 16.588" fill="none" xmlns="http://www.w3.org/2000/svg">
<path id="_shape" d="M1 16.588C0.716667 16.588 0.479167 16.4922 0.2875 16.3005C0.0958333 16.1088 0 15.8713 0 15.588V14.588C0 14.3047 0.0958333 14.0672 0.2875 13.8755C0.479167 13.6838 0.716667 13.588 1 13.588C1.28333 13.588 1.52083 13.6838 1.7125 13.8755C1.90417 14.0672 2 14.3047 2 14.588V15.588C2 15.8713 1.90417 16.1088 1.7125 16.3005C1.52083 16.4922 1.28333 16.588 1 16.588ZM5 16.588C4.71667 16.588 4.47917 16.4922 4.2875 16.3005C4.09583 16.1088 4 15.8713 4 15.588V10.088C4 9.80467 4.09583 9.56717 4.2875 9.3755C4.47917 9.18383 4.71667 9.088 5 9.088C5.28333 9.088 5.52083 9.18383 5.7125 9.3755C5.90417 9.56717 6 9.80467 6 10.088V15.588C6 15.8713 5.90417 16.1088 5.7125 16.3005C5.52083 16.4922 5.28333 16.588 5 16.588ZM9 16.588C8.71667 16.588 8.47917 16.4922 8.2875 16.3005C8.09583 16.1088 8 15.8713 8 15.588V12.088C8 11.8047 8.09583 11.5672 8.2875 11.3755C8.47917 11.1838 8.71667 11.088 9 11.088C9.28333 11.088 9.52083 11.1838 9.7125 11.3755C9.90417 11.5672 10 11.8047 10 12.088V15.588C10 15.8713 9.90417 16.1088 9.7125 16.3005C9.52083 16.4922 9.28333 16.588 9 16.588ZM13 16.588C12.7167 16.588 12.4792 16.4922 12.2875 16.3005C12.0958 16.1088 12 15.8713 12 15.588V10.588C12 10.3047 12.0958 10.0672 12.2875 9.8755C12.4792 9.68383 12.7167 9.588 13 9.588C13.2833 9.588 13.5208 9.68383 13.7125 9.8755C13.9042 10.0672 14 10.3047 14 10.588V15.588C14 15.8713 13.9042 16.1088 13.7125 16.3005C13.5208 16.4922 13.2833 16.588 13 16.588ZM17 16.588C16.7167 16.588 16.4792 16.4922 16.2875 16.3005C16.0958 16.1088 16 15.8713 16 15.588V6.588C16 6.30467 16.0958 6.06717 16.2875 5.8755C16.4792 5.68383 16.7167 5.588 17 5.588C17.2833 5.588 17.5208 5.68383 17.7125 5.8755C17.9042 6.06717 18 6.30467 18 6.588V15.588C18 15.8713 17.9042 16.1088 17.7125 16.3005C17.5208 16.4922 17.2833 16.588 17 16.588ZM11 7.563C10.7333 7.563 10.4792 7.513 10.2375 7.413C9.99583 7.313 9.775 7.17133 9.575 6.988L7 4.413L1.7 9.713C1.5 9.913 1.2625 10.0088 0.9875 10.0005C0.7125 9.99217 0.475 9.888 0.275 9.688C0.0916667 9.488 0.00416667 9.2505 0.0125 8.9755C0.0208333 8.7005 0.116667 8.47133 0.3 8.288L5.575 3.013C5.775 2.813 5.99583 2.66717 6.2375 2.5755C6.47917 2.48383 6.73333 2.438 7 2.438C7.26667 2.438 7.525 2.48383 7.775 2.5755C8.025 2.66717 8.24167 2.813 8.425 3.013L11 5.588L16.3 0.288C16.5 0.088 16.7375 -0.00783333 17.0125 0.0005C17.2875 0.00883333 17.525 0.113 17.725 0.313C17.9083 0.513 17.9958 0.7505 17.9875 1.0255C17.9792 1.3005 17.8833 1.52967 17.7 1.713L12.425 6.988C12.2417 7.17133 12.025 7.313 11.775 7.413C11.525 7.513 11.2667 7.563 11 7.563Z" fill="var(--fill-0, #10B981)"/>
</svg>
