<svg preserveAspectRatio="none" width="100%" height="100%" overflow="visible" style="display: block;" viewBox="0 0 20 17.675" fill="none" xmlns="http://www.w3.org/2000/svg">
<path id="_shape" d="M10 17.675C9.76667 17.675 9.52917 17.6333 9.2875 17.55C9.04583 17.4667 8.83333 17.3333 8.65 17.15L6.925 15.575C5.15833 13.9583 3.5625 12.3542 2.1375 10.7625C0.7125 9.17083 0 7.41667 0 5.5C0 3.93333 0.525 2.625 1.575 1.575C2.625 0.525 3.93333 0 5.5 0C6.38333 0 7.21667 0.1875 8 0.5625C8.78333 0.9375 9.45 1.45 10 2.1C10.55 1.45 11.2167 0.9375 12 0.5625C12.7833 0.1875 13.6167 0 14.5 0C16.0667 0 17.375 0.525 18.425 1.575C19.475 2.625 20 3.93333 20 5.5C20 7.41667 19.2917 9.175 17.875 10.775C16.4583 12.375 14.85 13.9833 13.05 15.6L11.35 17.15C11.1667 17.3333 10.9542 17.4667 10.7125 17.55C10.4708 17.6333 10.2333 17.675 10 17.675Z" fill="var(--fill-0, #10B981)"/>
</svg>
