<?xml version="1.0" encoding="UTF-8"?>
<svg version="1.1" xmlns="http://www.w3.org/2000/svg" width="1024" height="1024">
<path d="M0 0 C337.92 0 675.84 0 1024 0 C1024 337.92 1024 675.84 1024 1024 C686.08 1024 348.16 1024 0 1024 C0 686.08 0 348.16 0 0 Z " fill="#FEFEFE" transform="translate(0,0)"/>
<path d="M0 0 C1.49720581 0.00858032 1.49720581 0.00858032 3.0246582 0.01733398 C22.62645583 0.48520619 38.44916862 9.53541569 51.8125 23.5 C68.89526897 43.35036841 70.66019281 71.59622852 70.29956055 96.57836914 C70.24957583 100.09231914 70.23802135 103.60486427 70.23242188 107.11914062 C70.15902004 121.93485814 69.65745867 136.45631723 65.9375 150.875 C65.68468262 151.85533203 65.68468262 151.85533203 65.42675781 152.85546875 C63.98614226 158.25577991 62.11260153 163.41041365 59.8125 168.5 C59.1525 168.5 58.4925 168.5 57.8125 168.5 C57.5959375 169.923125 57.5959375 169.923125 57.375 171.375 C56.8125 174.5 56.8125 174.5 55.8125 176.5 C55.1525 176.5 54.4925 176.5 53.8125 176.5 C53.44125 177.304375 53.44125 177.304375 53.0625 178.125 C51.50597463 181.0823982 49.77814327 183.79724051 47.8125 186.5 C47.1525 186.5 46.4925 186.5 45.8125 186.5 C45.565 187.11875 45.3175 187.7375 45.0625 188.375 C43.57509631 190.90358627 42.37571991 191.21839004 39.8125 192.5 C39.52375 193.11875 39.235 193.7375 38.9375 194.375 C37.27721341 197.51109688 34.82537308 198.7424907 31.8125 200.5 C31.1525 200.5 30.4925 200.5 29.8125 200.5 C29.8125 201.16 29.8125 201.82 29.8125 202.5 C28.21217863 203.34069415 26.60708829 204.17231505 25 205 C24.10667969 205.4640625 23.21335937 205.928125 22.29296875 206.40625 C19.8125 207.5 19.8125 207.5 16.8125 207.5 C16.8125 208.16 16.8125 208.82 16.8125 209.5 C-3.24229805 216.64025318 -31.35386056 218.31561831 -51.03125 209.1796875 C-56.66077641 206.01721825 -60.81898075 203.0179882 -62.7578125 196.6171875 C-64.07943399 190.10519798 -63.8542834 184.04364067 -60.41796875 178.26171875 C-56.62777585 172.8351251 -56.62777585 172.8351251 -53.1875 171.5 C-47.02889479 170.84262079 -40.9078392 170.64804371 -34.95703125 172.51171875 C-29.71470384 173.88613205 -24.70768032 173.78991502 -19.3125 173.75 C-18.27480469 173.75773438 -17.23710938 173.76546875 -16.16796875 173.7734375 C-9.89137153 173.75760749 -4.24574454 173.11114126 1.8125 171.5 C3.47784667 171.16013333 5.14379513 170.82297514 6.8125 170.5 C6.8125 169.84 6.8125 169.18 6.8125 168.5 C8.7925 167.84 10.7725 167.18 12.8125 166.5 C12.8125 165.84 12.8125 165.18 12.8125 164.5 C13.59625 164.2525 14.38 164.005 15.1875 163.75 C18.19555008 162.3175952 18.56740357 161.4690761 19.8125 158.5 C20.4725 158.17 21.1325 157.84 21.8125 157.5 C27.33432579 148.77551526 29.66305926 139.46329001 31.8125 129.5 C30.43191406 130.65822266 30.43191406 130.65822266 29.0234375 131.83984375 C18.0123914 140.98564828 5.95880033 143.81948689 -8.1875 143.9375 C-8.96391846 143.9475708 -9.74033691 143.9576416 -10.5402832 143.96801758 C-15.96625205 143.88581476 -20.26134313 142.72986947 -25.1875 140.5 C-25.84621094 140.20327393 -26.50492188 139.90654785 -27.18359375 139.60083008 C-40.82215394 133.25178787 -49.52642996 127.12133626 -58.1875 114.5 C-58.75726562 113.695625 -59.32703125 112.89125 -59.9140625 112.0625 C-70.61630486 95.81704493 -71.7852262 75.82328283 -68.30078125 57.0625 C-63.92587708 37.46561564 -52.78814194 20.92337936 -36.1875 9.5 C-34.2578125 8.65625 -34.2578125 8.65625 -32.3125 8 C-29.83714362 7.12794784 -27.70565669 6.2430169 -25.375 5 C-17.22018288 1.162439 -8.94428083 -0.06042916 0 0 Z " fill="#56E559" transform="translate(681.1875,472.5)"/>
<path d="M0 0 C4.48896551 3.23205517 6.87924098 5.91020394 9 11 C9.37358761 14.05016613 9.37358761 14.05016613 9.37181091 17.34208679 C9.37856842 18.59656113 9.38532593 19.85103546 9.39228821 21.14352417 C9.38473587 22.52105849 9.37693016 23.89859145 9.36889648 25.27612305 C9.37136636 26.73697695 9.37520666 28.19782907 9.38031006 29.65867615 C9.3886329 32.7983612 9.3878532 35.93786478 9.38012505 39.07755089 C9.36851098 44.05046804 9.38073191 49.0231534 9.39674377 53.99604797 C9.4328902 66.35072435 9.43917364 78.70539516 9.43664551 91.06011963 C9.43493086 100.65819593 9.4421617 110.25608196 9.47662407 119.85410529 C9.49334521 124.78865572 9.49168599 129.72274085 9.47580135 134.65728891 C9.46996968 137.74006423 9.48080674 140.82262299 9.49604797 143.90535927 C9.49974788 145.324631 9.49674315 146.74394026 9.48617744 148.16317749 C9.42137649 157.49677658 9.69841468 167.22046076 16.25 174.5 C23.83278907 178.63606676 29.96575982 179.44372264 38.48974609 179.41992188 C40.17915565 179.43262619 40.17915565 179.43262619 41.9026947 179.44558716 C45.60972522 179.46890291 49.31633934 179.46998055 53.0234375 179.46875 C55.6112179 179.4758548 58.19899673 179.48355427 60.78677368 179.49182129 C66.20523093 179.5052537 71.62352663 179.50702252 77.04199219 179.50097656 C83.28379037 179.49433946 89.52499707 179.51719719 95.76667535 179.55429029 C101.79699674 179.58881212 107.82700638 179.59531427 113.85744095 179.59120178 C116.4114114 179.59289066 118.96538982 179.60251059 121.51929855 179.62034607 C125.09715898 179.64258375 128.67360752 179.63280736 132.25146484 179.61523438 C133.29698013 179.62849762 134.34249542 179.64176086 135.41969299 179.65542603 C143.62295301 179.56223238 150.46350738 177.44581332 156.4375 171.625 C159.98254788 165.66931956 161.45199887 161.02285825 161.328125 154.08203125 C161.32531525 152.97428596 161.32531525 152.97428596 161.32244873 151.84416199 C161.31576312 150.28855848 161.30191869 148.73297079 161.28125 147.17749023 C161.25031396 144.8362604 161.24028828 142.49571035 161.234375 140.15429688 C161.19505389 132.62882594 160.94393495 125.19393006 160.23583984 117.69702148 C159.85489139 113.34056443 159.73864452 108.9961519 159.6875 104.625 C159.65849609 103.77550781 159.62949219 102.92601562 159.59960938 102.05078125 C159.53465977 95.62576668 161.02763222 92.05957661 165.59765625 87.35546875 C171.99759897 82.25258109 178.0244947 82.17982392 186 83 C190.75131866 84.66072737 193.83514369 87.28060877 196.4375 91.5625 C203.52709661 107.15961254 201.22460334 128.97044525 201.29855347 145.78839111 C201.30778142 147.83069595 201.32180646 149.87298528 201.34085083 151.91522217 C201.50683697 172.0577534 199.06382546 189.70413809 184.3828125 204.8828125 C166.00848161 221.20885732 141.7807118 220.4585907 118.75390625 220.3984375 C116.01114073 220.39910854 113.26838228 220.40337409 110.52561951 220.40713501 C104.79755238 220.41256261 99.06960204 220.40548122 93.34155273 220.39111328 C86.76302358 220.37480034 80.18477368 220.38007747 73.6062513 220.3965925 C67.9123037 220.41030301 62.21843909 220.41208058 56.52448028 220.40427649 C53.14380919 220.39965094 49.76337146 220.40004687 46.38269234 220.40888596 C23.35060772 220.45590003 1.74871803 220.43626006 -15.8828125 203.3828125 C-28.11850422 189.61201555 -30.30089318 172.99139364 -30.30639648 155.30419922 C-30.31403122 153.73936575 -30.32246094 152.17453599 -30.33161926 150.60971069 C-30.35342946 146.38675246 -30.36234375 142.16386654 -30.36744571 137.94085836 C-30.3711024 135.29843521 -30.3773489 132.65603066 -30.3844471 130.01361465 C-30.40888541 120.78429592 -30.4219833 111.55503303 -30.42553711 102.32568359 C-30.4291779 93.73789222 -30.45912645 85.15045698 -30.50094169 76.56277454 C-30.53565987 69.17226312 -30.55108574 61.78186983 -30.55178314 54.39127743 C-30.55257481 49.98454712 -30.56126418 45.57818111 -30.58978081 41.17153549 C-30.61599114 37.0295363 -30.61815056 32.88820301 -30.60212517 28.7461586 C-30.60031359 27.23046666 -30.60697522 25.7147361 -30.62294388 24.1991272 C-30.77232018 9.09609806 -30.77232018 9.09609806 -25 3 C-17.88965775 -3.36149253 -8.60943684 -4.11003266 0 0 Z " fill="#1B6922" transform="translate(303,394)"/>
<path d="M0 0 C6.41977883 2.98455943 10.28034467 6.42978696 13 13 C13.28421116 15.8026015 13.41854548 18.37968871 13.40113831 21.17781067 C13.40793498 21.98513049 13.41473164 22.79245032 13.42173427 23.62423438 C13.44067731 26.32099211 13.43827134 29.01729455 13.43579102 31.71411133 C13.44477038 33.65111371 13.45497903 35.58811073 13.46632385 37.52510071 C13.49281042 42.78140917 13.49985677 48.03757109 13.50177121 53.29393983 C13.50390467 56.57959339 13.51031131 59.86520978 13.51826286 63.15085411 C13.54601225 74.61825295 13.55826893 86.08554721 13.5559082 97.55297852 C13.55410617 108.23448665 13.58575784 118.9155401 13.63313919 129.59693319 C13.67239463 138.77421065 13.68845868 147.95133968 13.68654197 157.12870044 C13.68577784 162.60697237 13.69428563 168.08484019 13.72607613 173.56302834 C13.75516922 178.71704096 13.75532405 183.87026453 13.73352623 189.02430534 C13.73039476 190.91207154 13.73744178 192.79988728 13.7556076 194.68756866 C13.91065128 211.91967021 13.91065128 211.91967021 8.52224636 218.45562267 C8.01990506 218.96526719 7.51756376 219.47491171 7 220 C6.20464844 220.8353125 5.40929687 221.670625 4.58984375 222.53125 C1.11894782 224.49966157 -1.4653566 224.53200116 -5.4375 224.5 C-6.71496094 224.5103125 -7.99242187 224.520625 -9.30859375 224.53125 C-15.62385682 223.62238674 -19.92866207 219.74989425 -24 215 C-25.9853278 210.30187749 -26.28860063 205.95990599 -26.26742554 200.92935181 C-26.27195665 200.13357707 -26.27648776 199.33780234 -26.28115618 198.51791322 C-26.29378248 195.86035261 -26.29218097 193.20299739 -26.29052734 190.54541016 C-26.29651366 188.63634478 -26.30331944 186.72728183 -26.31088257 184.81822205 C-26.32853823 179.63844035 -26.33323774 174.45872476 -26.33451414 169.27891588 C-26.33593642 166.0415214 -26.34020745 162.8041437 -26.34550858 159.56675339 C-26.36400666 148.26910079 -26.37217937 136.97149537 -26.37060547 125.67382812 C-26.36940378 115.1480466 -26.39051205 104.62247003 -26.4220928 94.09674037 C-26.44825434 85.05452118 -26.45897283 76.01236895 -26.45769465 66.9701122 C-26.45718503 61.57188609 -26.46286858 56.1738422 -26.48405075 50.77565384 C-26.50343125 45.69811562 -26.50355878 40.62093351 -26.48901749 35.54338264 C-26.48692814 33.68261634 -26.49163776 31.82182776 -26.5037384 29.96109962 C-26.51921932 27.41518851 -26.50986464 24.87050102 -26.49447632 22.32461548 C-26.50476344 21.59327601 -26.51505057 20.86193654 -26.52564943 20.10843527 C-26.44175681 13.80124746 -24.35737624 8.59456605 -20.09765625 3.90625 C-13.69243532 -0.51962243 -7.65576665 -1.54596497 0 0 Z " fill="#43BB50" transform="translate(566,392)"/>
<path d="M0 0 C1.25453979 0.00749268 1.25453979 0.00749268 2.53442383 0.01513672 C9.24644572 0.20457578 14.10946629 1.55137928 19.625 5.5 C20.32625 5.94601562 21.0275 6.39203125 21.75 6.8515625 C29.93014939 12.39795167 36.48742594 20.7536802 38.625 30.5 C39.68404172 40.26616299 40.1463272 53.46039996 34.04296875 61.61328125 C32.31636884 63.3699744 30.52528337 64.93530751 28.625 66.5 C27.2946875 67.86125 27.2946875 67.86125 25.9375 69.25 C20.54166667 74.5 20.54166667 74.5 17.625 74.5 C17.625 75.16 17.625 75.82 17.625 76.5 C16.635 76.5 15.645 76.5 14.625 76.5 C14.625 77.16 14.625 77.82 14.625 78.5 C8.3715201 80.72705569 2.59977595 80.75969309 -3.99609375 80.6953125 C-5.09599136 80.6924826 -6.19588898 80.68965271 -7.32911682 80.68673706 C-10.82369103 80.6755898 -14.31800394 80.65049498 -17.8125 80.625 C-20.18944941 80.61496316 -22.56640286 80.60583854 -24.94335938 80.59765625 C-30.7539946 80.57566831 -36.56447862 80.5422451 -42.375 80.5 C-42.25732171 74.02200279 -42.13249178 67.54417172 -42.00268555 61.06640625 C-41.9593699 58.862662 -41.91769241 56.65888492 -41.87768555 54.45507812 C-41.81990156 51.28765976 -41.75623024 48.12040614 -41.69140625 44.953125 C-41.67469376 43.96757629 -41.65798126 42.98202759 -41.64076233 41.96661377 C-41.62081711 41.0459613 -41.60087189 40.12530884 -41.58032227 39.17675781 C-41.56477798 38.3684552 -41.5492337 37.56015259 -41.53321838 36.72735596 C-41.37797865 34.54193269 -40.97491191 32.60291419 -40.375 30.5 C-39.715 30.5 -39.055 30.5 -38.375 30.5 C-38.33375 29.530625 -38.2925 28.56125 -38.25 27.5625 C-37.39852723 21.41436575 -33.01342689 15.50476202 -28.375 11.5 C-27.715 11.5 -27.055 11.5 -26.375 11.5 C-26.189375 10.9225 -26.00375 10.345 -25.8125 9.75 C-20.74815738 1.82320285 -8.68097395 -0.06822327 0 0 Z " fill="#5FEC59" transform="translate(709.375,337.5)"/>
<path d="M0 0 C0.495 0.99 0.495 0.99 1 2 C1.92619141 2.21076172 1.92619141 2.21076172 2.87109375 2.42578125 C7.67610115 3.72181077 10.52193641 9.17135645 12.875 13.25 C14 16 14 16 14 19 C14.66 19 15.32 19 16 19 C18.88395829 30.48433389 19.34293222 41.20059132 19 53 C5.46998929 59.71704048 -10.29264517 62.71746995 -25.1484375 58.68359375 C-31.26284582 56.42616452 -35.22773274 52.10739556 -39 47 C-39.41765625 46.46117187 -39.8353125 45.92234375 -40.265625 45.3671875 C-44.95210725 38.00743016 -44.13247611 27.22011176 -42.33984375 18.95703125 C-39.0791585 9.85252047 -32.53770012 3.32453071 -24 -1 C-16.71120126 -3.42959958 -7.10920926 -2.97594806 0 0 Z " fill="#F8FDF7" transform="translate(694,515)"/>
<path d="M0 0 C4.81723508 3.45512033 8.88163257 8.81223181 10.265625 14.625 C11.27938358 22.36011683 9.67475451 28.19963539 5.265625 34.625 C0.76859582 39.68677238 -3.71704601 42.26590914 -10.53125 42.875 C-16.94833652 43.13040643 -21.81795502 42.97591627 -26.734375 38.625 C-33.21602258 32.24864994 -35.82863251 28.48833305 -36.109375 19.375 C-36.03460184 11.95584116 -34.09793429 8.12153722 -29.0546875 2.87890625 C-20.52701803 -5.02340079 -10.02265381 -5.54712915 0 0 Z " fill="#196420" transform="translate(439.734375,641.375)"/>
<path d="M0 0 C2.35833145 2.12661766 4.20201832 4.38946891 6 7 C6.928125 8.3303125 6.928125 8.3303125 7.875 9.6875 C9.87056615 15.56333367 10.16139413 21.69449364 8.0859375 27.6015625 C4.73178376 34.07183326 0.05332185 38.82613707 -6.88671875 41.48828125 C-13.18382241 43.01308824 -19.74229354 43.21877652 -25.4375 39.875 C-30.10925097 36.45617185 -34.92205999 31.55720204 -36.625 25.9375 C-37.57624852 18.48605328 -37.77594976 12.67727776 -33.6953125 6.11328125 C-25.03124388 -4.68685959 -11.92503669 -7.79011018 0 0 Z " fill="#2D8637" transform="translate(495,642)"/>
<path d="M0 0 C-0.33 2.97 -0.66 5.94 -1 9 C-1.33 7.68 -1.66 6.36 -2 5 C-3.32 4.67 -4.64 4.34 -6 4 C-2.25 0 -2.25 0 0 0 Z " fill="#BEF8BA" transform="translate(713,602)"/>
</svg>
