<?xml version="1.0" encoding="UTF-8"?>
<svg id="Layer_2" data-name="Layer 2" xmlns="http://www.w3.org/2000/svg" viewBox="0 0 795.2 215.95">
  <defs>
    <style>
      .cls-1 {
        fill-rule: evenodd;
      }

      .cls-1, .cls-2 {
        fill: #1f0433;
      }
    </style>
  </defs>
  <g id="Layer_1-2" data-name="Layer 1">
    <g>
      <g>
        <path class="cls-2" d="M282.15,76.35v-25.84h94.81c6.41,0,6.41,5.76,4.27,8.97l-52.96,83.06h52.96v25.84h-94.38c-6.41,0-6.41-5.77-4.27-8.97l53.17-83.06h-53.6Z"/>
        <path class="cls-2" d="M393.4,22.97c0-9.82,7.9-18.15,18.15-18.15s18.15,8.11,18.15,18.15-8.33,18.15-18.15,18.15-18.15-8.11-18.15-18.15ZM426.49,168.39h-29.89V50.52h29.89v117.87Z"/>
        <path class="cls-2" d="M526.85,57.35V7.81h29.89v100.36c0,36.3-23.7,62.14-57.87,62.14s-58.29-25.84-58.29-60,24.13-61.28,58.29-61.28c10.04,0,20.07,3.63,27.97,8.33ZM498.67,139.56c16.44,0,29.89-13.45,29.89-30.11s-13.45-29.68-29.89-29.68-29.89,13.24-29.89,29.68,13.24,30.11,29.89,30.11Z"/>
        <path class="cls-2" d="M698.75,168.39h-76.66v-30.75h66.62c6.83,0,8.97-1.71,8.97-8.75v-14.09c0-25.62-7.05-33.52-32.67-33.52h-21.35v-30.75h21.35c46.98,0,62.56,17.3,62.56,64.27v24.56c0,17.08-11.74,29.04-28.83,29.04Z"/>
        <path class="cls-2" d="M793.28,77.21v69.61c0,34.17-25.62,62.99-59.79,62.99v-31.6c17.08,0,29.89-14.31,29.89-31.39v-69.61h29.89ZM778.12,67.81c9.18,0,17.08-7.47,17.08-17.08s-7.9-17.08-17.08-17.08-17.08,7.9-17.08,17.08,7.47,17.08,17.08,17.08Z"/>
      </g>
      <path class="cls-1" d="M107.98,19.31c-5.55,0-10.01,4.46-10.01,10.01,0,11.25,3.55,22.15,10.01,31.19,6.46-9.04,10.01-19.95,10.01-31.19,0-5.55-4.46-10.01-10.01-10.01ZM121.31,74.88c10.29-12.87,15.98-28.93,15.98-45.56S124.19,0,107.98,0s-29.32,13.11-29.32,29.32,5.7,32.7,15.98,45.56l-19.75,19.75c-12.87-10.29-28.93-15.98-45.56-15.98S0,91.76,0,107.97s13.11,29.32,29.32,29.32,32.7-5.7,45.56-15.98l19.75,19.75c-10.29,12.87-15.98,28.93-15.98,45.56s13.11,29.32,29.32,29.32,29.32-13.11,29.32-29.32-5.7-32.7-15.98-45.56l19.75-19.75c12.87,10.29,28.93,15.98,45.56,15.98s29.32-13.11,29.32-29.32-13.11-29.32-29.32-29.32-32.7,5.7-45.56,15.98l-19.75-19.75ZM107.98,88.86l-19.12,19.12,19.12,19.12,19.12-19.12-19.12-19.12ZM155.44,107.97c9.04,6.46,19.95,10.01,31.19,10.01,5.55,0,10.01-4.46,10.01-10.01s-4.46-10.01-10.01-10.01c-11.25,0-22.15,3.55-31.19,10.01ZM107.98,155.43c-6.46,9.04-10.01,19.95-10.01,31.19,0,5.55,4.46,10.01,10.01,10.01s10.01-4.46,10.01-10.01c0-11.25-3.55-22.15-10.01-31.19ZM60.52,107.97c-9.04-6.46-19.95-10.01-31.19-10.01-5.55,0-10.01,4.46-10.01,10.01s4.46,10.01,10.01,10.01c11.25,0,22.15-3.55,31.19-10.01Z"/>
      <path class="cls-1" d="M107.97,19.31c-5.55,0-10.01,4.46-10.01,10.01,0,11.25,3.55,22.15,10.01,31.19,6.46-9.04,10.01-19.95,10.01-31.19,0-5.55-4.46-10.01-10.01-10.01ZM121.31,74.88c10.29-12.87,15.98-28.93,15.98-45.56S124.19,0,107.97,0s-29.32,13.11-29.32,29.32,5.7,32.7,15.98,45.56l-19.75,19.75c-12.87-10.29-28.93-15.98-45.56-15.98S0,91.76,0,107.97s13.11,29.32,29.32,29.32,32.7-5.7,45.56-15.98l19.75,19.75c-10.29,12.87-15.98,28.93-15.98,45.56s13.11,29.32,29.32,29.32,29.32-13.11,29.32-29.32-5.7-32.7-15.98-45.56l19.75-19.75c12.87,10.29,28.93,15.98,45.56,15.98s29.32-13.11,29.32-29.32-13.11-29.32-29.32-29.32-32.7,5.7-45.56,15.98l-19.75-19.75ZM107.97,88.86l-19.12,19.12,19.12,19.12,19.12-19.12-19.12-19.12ZM155.43,107.97c9.04,6.46,19.95,10.01,31.19,10.01,5.55,0,10.01-4.46,10.01-10.01s-4.46-10.01-10.01-10.01c-11.25,0-22.15,3.55-31.19,10.01ZM107.97,155.43c-6.46,9.04-10.01,19.95-10.01,31.19,0,5.55,4.46,10.01,10.01,10.01s10.01-4.46,10.01-10.01c0-11.25-3.55-22.15-10.01-31.19ZM60.51,107.97c-9.04-6.46-19.95-10.01-31.19-10.01-5.55,0-10.01,4.46-10.01,10.01s4.46,10.01,10.01,10.01c11.25,0,22.15-3.55,31.19-10.01Z"/>
    </g>
  </g>
</svg>