<svg preserveAspectRatio="none" width="100%" height="100%" overflow="visible" style="display: block;" viewBox="0 0 20 18" fill="none" xmlns="http://www.w3.org/2000/svg">
<path id="_shape" d="M1 18C0.716667 18 0.479167 17.9042 0.2875 17.7125C0.0958333 17.5208 0 17.2833 0 17V7C0 6.71667 0.0958333 6.47917 0.2875 6.2875C0.479167 6.09583 0.716667 6 1 6H4.5C4.78333 6 5.02083 6.09583 5.2125 6.2875C5.40417 6.47917 5.5 6.71667 5.5 7V17C5.5 17.2833 5.40417 17.5208 5.2125 17.7125C5.02083 17.9042 4.78333 18 4.5 18H1ZM8.25 18C7.96667 18 7.72917 17.9042 7.5375 17.7125C7.34583 17.5208 7.25 17.2833 7.25 17V1C7.25 0.716667 7.34583 0.479167 7.5375 0.2875C7.72917 0.0958333 7.96667 0 8.25 0H11.75C12.0333 0 12.2708 0.0958333 12.4625 0.2875C12.6542 0.479167 12.75 0.716667 12.75 1V17C12.75 17.2833 12.6542 17.5208 12.4625 17.7125C12.2708 17.9042 12.0333 18 11.75 18H8.25ZM15.5 18C15.2167 18 14.9792 17.9042 14.7875 17.7125C14.5958 17.5208 14.5 17.2833 14.5 17V9C14.5 8.71667 14.5958 8.47917 14.7875 8.2875C14.9792 8.09583 15.2167 8 15.5 8H19C19.2833 8 19.5208 8.09583 19.7125 8.2875C19.9042 8.47917 20 8.71667 20 9V17C20 17.2833 19.9042 17.5208 19.7125 17.7125C19.5208 17.9042 19.2833 18 19 18H15.5Z" fill="var(--fill-0, #10B981)"/>
</svg>
