<svg width="64" height="64" viewBox="0 0 64 64" fill="none" xmlns="http://www.w3.org/2000/svg">
<rect width="64" height="64" rx="32" fill="#FA846C" fill-opacity="0.1"/>
<path d="M33.5 45.5V42.5H36.5V45.5H33.5ZM30.5 42.5V35H33.5V42.5H30.5ZM42.5 38V32H45.5V38H42.5ZM39.5 32V29H42.5V32H39.5ZM21.5 35V32H24.5V35H21.5ZM18.5 32V29H21.5V32H18.5ZM32 21.5V18.5H35V21.5H32ZM20.75 25.25H25.25V20.75H20.75V25.25ZM18.5 27.5V18.5H27.5V27.5H18.5ZM20.75 43.25H25.25V38.75H20.75V43.25ZM18.5 45.5V36.5H27.5V45.5H18.5ZM38.75 25.25H43.25V20.75H38.75V25.25ZM36.5 27.5V18.5H45.5V27.5H36.5ZM39.5 45.5V41H36.5V38H42.5V42.5H45.5V45.5H39.5ZM33.5 35V32H39.5V35H33.5ZM27.5 35V32H24.5V29H33.5V32H30.5V35H27.5ZM29 27.5V21.5H32V24.5H35V27.5H29ZM21.875 24.125V21.875H24.125V24.125H21.875ZM21.875 42.125V39.875H24.125V42.125H21.875ZM39.875 24.125V21.875H42.125V24.125H39.875Z" fill="#FA846C"/>
</svg>
