<svg width="64" height="64" viewBox="0 0 64 64" fill="none" xmlns="http://www.w3.org/2000/svg">
<rect width="64" height="64" rx="32" fill="#85D4A9" fill-opacity="0.1"/>
<path d="M33.5187 40.25L38.7687 35C39.0437 34.725 39.2625 34.4 39.425 34.025C39.5875 33.65 39.6687 33.25 39.6687 32.825C39.6687 31.975 39.3687 31.25 38.7687 30.65C38.1687 30.05 37.4437 29.75 36.5937 29.75C36.1187 29.75 35.65 29.8875 35.1875 30.1625C34.725 30.4375 34.1687 30.9 33.5187 31.55C32.7687 30.85 32.1812 30.375 31.7562 30.125C31.3312 29.875 30.8937 29.75 30.4437 29.75C29.5937 29.75 28.8687 30.05 28.2687 30.65C27.6687 31.25 27.3687 31.975 27.3687 32.825C27.3687 33.25 27.45 33.65 27.6125 34.025C27.775 34.4 27.9937 34.725 28.2687 35L33.5187 40.25ZM46.1187 35.375L35.3937 46.1C35.0937 46.4 34.7562 46.625 34.3812 46.775C34.0062 46.925 33.6312 47 33.2562 47C32.8812 47 32.5062 46.925 32.1312 46.775C31.7562 46.625 31.4187 46.4 31.1187 46.1L17.8812 32.8625C17.6062 32.5875 17.3937 32.2688 17.2437 31.9062C17.0937 31.5437 17.0187 31.1625 17.0187 30.7625V20C17.0187 19.175 17.3125 18.4688 17.9 17.8813C18.4875 17.2938 19.1937 17 20.0187 17H30.7812C31.1812 17 31.5687 17.0813 31.9437 17.2438C32.3187 17.4062 32.6437 17.625 32.9187 17.9L46.1187 31.1375C46.4187 31.4375 46.6375 31.775 46.775 32.15C46.9125 32.525 46.9812 32.9 46.9812 33.275C46.9812 33.65 46.9125 34.0188 46.775 34.3813C46.6375 34.7437 46.4187 35.075 46.1187 35.375ZM33.2562 44L43.9812 33.275L30.7437 20H20.0187V30.725L33.2562 44ZM23.7687 26C24.3937 26 24.925 25.7812 25.3625 25.3438C25.8 24.9062 26.0187 24.375 26.0187 23.75C26.0187 23.125 25.8 22.5938 25.3625 22.1562C24.925 21.7188 24.3937 21.5 23.7687 21.5C23.1437 21.5 22.6125 21.7188 22.175 22.1562C21.7375 22.5938 21.5187 23.125 21.5187 23.75C21.5187 24.375 21.7375 24.9062 22.175 25.3438C22.6125 25.7812 23.1437 26 23.7687 26Z" fill="#85D4A9"/>
</svg>
