<svg width="64" height="64" viewBox="0 0 64 64" fill="none" xmlns="http://www.w3.org/2000/svg">
<rect width="64" height="64" rx="32" fill="#10B981" fill-opacity="0.1"/>
<path d="M21.5 44C20.675 44 19.9688 43.7062 19.3813 43.1187C18.7938 42.5312 18.5 41.825 18.5 41C18.5 40.175 18.7938 39.4688 19.3813 38.8813C19.9688 38.2938 20.675 38 21.5 38C22.325 38 23.0312 38.2938 23.6188 38.8813C24.2063 39.4688 24.5 40.175 24.5 41C24.5 41.825 24.2063 42.5312 23.6188 43.1187C23.0312 43.7062 22.325 44 21.5 44ZM21.5 35C20.675 35 19.9688 34.7062 19.3813 34.1187C18.7938 33.5312 18.5 32.825 18.5 32C18.5 31.175 18.7938 30.4688 19.3813 29.8813C19.9688 29.2938 20.675 29 21.5 29C22.325 29 23.0312 29.2938 23.6188 29.8813C24.2063 30.4688 24.5 31.175 24.5 32C24.5 32.825 24.2063 33.5312 23.6188 34.1187C23.0312 34.7062 22.325 35 21.5 35ZM21.5 26C20.675 26 19.9688 25.7063 19.3813 25.1188C18.7938 24.5312 18.5 23.825 18.5 23C18.5 22.175 18.7938 21.4688 19.3813 20.8813C19.9688 20.2938 20.675 20 21.5 20C22.325 20 23.0312 20.2938 23.6188 20.8813C24.2063 21.4688 24.5 22.175 24.5 23C24.5 23.825 24.2063 24.5312 23.6188 25.1188C23.0312 25.7063 22.325 26 21.5 26ZM30.5 26C29.675 26 28.9688 25.7063 28.3813 25.1188C27.7938 24.5312 27.5 23.825 27.5 23C27.5 22.175 27.7938 21.4688 28.3813 20.8813C28.9688 20.2938 29.675 20 30.5 20C31.325 20 32.0312 20.2938 32.6187 20.8813C33.2062 21.4688 33.5 22.175 33.5 23C33.5 23.825 33.2062 24.5312 32.6187 25.1188C32.0312 25.7063 31.325 26 30.5 26ZM39.5 26C38.675 26 37.9688 25.7063 37.3813 25.1188C36.7938 24.5312 36.5 23.825 36.5 23C36.5 22.175 36.7938 21.4688 37.3813 20.8813C37.9688 20.2938 38.675 20 39.5 20C40.325 20 41.0312 20.2938 41.6187 20.8813C42.2062 21.4688 42.5 22.175 42.5 23C42.5 23.825 42.2062 24.5312 41.6187 25.1188C41.0312 25.7063 40.325 26 39.5 26ZM30.5 35C29.675 35 28.9688 34.7062 28.3813 34.1187C27.7938 33.5312 27.5 32.825 27.5 32C27.5 31.175 27.7938 30.4688 28.3813 29.8813C28.9688 29.2938 29.675 29 30.5 29C31.325 29 32.0312 29.2938 32.6187 29.8813C33.2062 30.4688 33.5 31.175 33.5 32C33.5 32.825 33.2062 33.5312 32.6187 34.1187C32.0312 34.7062 31.325 35 30.5 35ZM32 44V39.3875L40.2875 31.1375C40.5125 30.9125 40.7625 30.75 41.0375 30.65C41.3125 30.55 41.5875 30.5 41.8625 30.5C42.1625 30.5 42.45 30.5562 42.725 30.6687C43 30.7812 43.25 30.95 43.475 31.175L44.8625 32.5625C45.0625 32.7875 45.2188 33.0375 45.3312 33.3125C45.4437 33.5875 45.5 33.8625 45.5 34.1375C45.5 34.4125 45.45 34.6937 45.35 34.9812C45.25 35.2688 45.0875 35.525 44.8625 35.75L36.6125 44H32ZM43.25 34.1375L41.8625 32.75L43.25 34.1375ZM34.25 41.75H35.675L40.2125 37.175L39.5375 36.4625L38.825 35.7875L34.25 40.325V41.75ZM39.5375 36.4625L38.825 35.7875L40.2125 37.175L39.5375 36.4625Z" fill="#10B981"/>
</svg>
